<?xml version="1.0" encoding="utf-8"?>
<svg xmlns="http://www.w3.org/2000/svg" viewBox="0 0 30 30" width="480" height="480" fill="currentColor">
  <path d="M15 3C13.051 3 10.635984 3.6181719 8.8339844 4.7011719C8.7039844 4.7771719 8.3470625 5.0221406 8.1640625 5.2441406L8.1640625 5.2460938C9.8830625 3.3500938 14.893 7.3485937 15 7.4335938L15 7.4355469C15.107 7.3505469 20.116938 3.3520937 21.835938 5.2460938C21.651937 5.0240937 21.295063 4.780125 21.164062 4.703125C19.363063 3.622125 17.254953 3 15.001953 3L15 3 z M 7.4414062 6.1035156C7.0363594 6.1687656 6.5830625 6.4272031 6.1953125 6.8457031C4.2123125 8.9867031 3 11.850047 3 14.998047C3 18.106507 4.1826933 20.935533 6.1210938 23.066406C5.4850937 19.988406 6.0637812 17.819047 7.8007812 14.998047C9.5407813 12.174047 12.599609 8.9980469 12.599609 8.9980469C10.075609 6.6150469 8.2821719 6.1885156 7.8261719 6.1035156C7.7061719 6.0810156 7.5764219 6.0817656 7.4414062 6.1035156 z M 6.1210938 23.066406C6.1210938 23.066406 6.1210938 23.068359 6.1210938 23.068359L6.1210938 23.070312C8.3160938 25.482313 11.494953 27 15.001953 27C18.518953 27 21.684859 25.485219 23.880859 23.074219L23.880859 23.072266C25.818859 20.940266 27 18.109 27 15C27 11.852 25.788687 8.9896563 23.804688 6.8476562C23.287688 6.2896563 22.653828 6.0154687 22.173828 6.1054688C21.718828 6.1914688 19.924391 6.618 17.400391 9C17.400391 9 20.459219 12.176 22.199219 15C23.935219 17.822 24.514906 19.990359 23.878906 23.068359C23.872906 23.033359 23.629672 21.45375 22.013672 19.21875C20.750672 17.47575 17 13.300391 15 11.400391C13 13.300391 9.2493281 17.471797 7.9863281 19.216797C6.3703281 21.449797 6.1270937 23.030406 6.1210938 23.066406 z" />
</svg>