<?xml version="1.0" encoding="utf-8"?>
<svg xmlns="http://www.w3.org/2000/svg" viewBox="0 0 30 30" width="480" height="480">
  <path d="M15 3C8.373 3 3 8.373 3 15C3 15.285 3.0229687 15.56375 3.0429688 15.84375L7.5351562 17.017578C8.1301563 15.988578 9.1675781 15.247547 10.392578 15.060547L11.066406 13.851562C11.027406 13.572563 11 13.29 11 13C11 9.686 13.686 7 17 7C20.314 7 23 9.686 23 13C23 16.314 20.314 19 17 19C16.71 19 16.427437 18.972594 16.148438 18.933594L14.939453 19.607422C14.645453 21.526422 13.001 23 11 23C8.791 23 7 21.209 7 19C7 18.982 7.0058594 18.965266 7.0058594 18.947266L3.3945312 18.005859C4.7295312 23.175859 9.412 27 15 27C21.627 27 27 21.627 27 15C27 8.373 21.627 3 15 3 z M 17 9C14.794 9 13 10.794 13 13C13 15.206 14.794 17 17 17C19.206 17 21 15.206 21 13C21 10.794 19.206 9 17 9 z M 17 11C18.103 11 19 11.897 19 13C19 14.103 18.103 15 17 15C15.897 15 15 14.103 15 13C15 11.897 15.897 11 17 11 z M 11 16.5C10.215 16.5 9.5224531 16.868547 9.0644531 17.435547L11.263672 18.035156C11.796672 18.181156 12.111797 18.730672 11.966797 19.263672C11.843797 19.707672 11.44 20 11 20C10.913 20 10.825328 19.988844 10.736328 19.964844L8.5351562 19.365234C8.7141562 20.571234 9.744 21.5 11 21.5C12.381 21.5 13.5 20.381 13.5 19C13.5 17.619 12.381 16.5 11 16.5 z" fill="#C19B7C" />
</svg>