<?xml version="1.0" encoding="utf-8"?>
<svg xmlns="http://www.w3.org/2000/svg" viewBox="0 0 30 30" width="480" height="480">
  <path d="M19.496 4L16 4.008V26h3.496C22.531 26 25 23.415 25 20.238v-9.887C25 6.374 22.943 4 19.496 4zM20.5 20c-1.379 0-2.5-1.121-2.5-2.5s1.121-2.5 2.5-2.5 2.5 1.121 2.5 2.5S21.879 20 20.5 20zM10.504 26L14 25.992V4h-3.496C7.469 4 5 6.585 5 9.762v9.887C5 23.626 7.057 26 10.504 26zM9.5 9c1.379 0 2.5 1.121 2.5 2.5S10.879 14 9.5 14 7 12.879 7 11.5 8.121 9 9.5 9z" fill="#C19B7C" />
</svg>